<svg width="84" height="84" viewBox="0 0 84 84" fill="none" xmlns="http://www.w3.org/2000/svg">
<path d="M71.1811 67.731L59.6704 56.2202C58.0979 54.6477 55.456 54.6477 53.8835 56.2202L48.0967 62.007C46.65 63.4538 44.3856 63.7054 42.6243 62.636C34.007 57.1637 26.7105 49.9302 21.364 41.3757C20.2947 39.6774 20.5463 37.413 21.993 35.9663L27.7798 30.1794C29.3524 28.6069 29.3524 25.9651 27.7798 24.3926L16.2691 12.8189C14.6966 11.2464 12.0547 11.2464 10.4822 12.8189L3.62608 19.6122C2.11647 21.1218 1.61327 23.3862 2.30517 25.399C11.866 51.4398 32.4345 72.0082 58.4753 81.5691C60.4881 82.3239 62.7525 81.8207 64.2621 80.2482L71.1182 73.4549C72.7537 71.9453 72.7537 69.3035 71.1811 67.731Z" stroke="#141F33" stroke-width="2.5" stroke-miterlimit="10" stroke-linecap="round" stroke-linejoin="round"/>
<path d="M82 2H73.5714V10.4287H82V2Z" stroke="#141F33" stroke-width="2.5"/>
<path d="M50.9901 2H42.5614V10.4287H50.9901V2Z" stroke="#141F33" stroke-width="2.5"/>
<path d="M66.4636 2H58.0349V10.4287H66.4636V2Z" stroke="#141F33" stroke-width="2.5"/>
<path d="M82 17.4736H73.5714V25.9023H82V17.4736Z" stroke="#141F33" stroke-width="2.5"/>
<path d="M50.9901 17.4736H42.5614V25.9023H50.9901V17.4736Z" stroke="#141F33" stroke-width="2.5"/>
<path d="M66.4636 17.4736H58.0349V25.9023H66.4636V17.4736Z" stroke="#141F33" stroke-width="2.5"/>
<path d="M82 33.0098H73.5714V41.4384H82V33.0098Z" stroke="#141F33" stroke-width="2.5"/>
<path d="M50.9901 33.0098H42.5614V41.4384H50.9901V33.0098Z" stroke="#141F33" stroke-width="2.5"/>
<path d="M66.4636 33.0098H58.0349V41.4384H66.4636V33.0098Z" stroke="#141F33" stroke-width="2.5"/>
</svg>
