<svg width="68" height="84" viewBox="0 0 68 84" fill="none" xmlns="http://www.w3.org/2000/svg">
<path d="M39.5156 50.9442L34.1118 55.6647L28.646 50.9442" stroke="#141F33" stroke-width="2.5" stroke-miterlimit="10" stroke-linecap="round" stroke-linejoin="round"/>
<path d="M52.9938 73.4286L66.2857 70.6956L63.8012 58.149C63.2422 55.354 61.7515 52.8695 59.5776 51.0683C58.2112 49.9503 56.7826 49.2049 55.4161 48.8944L44.6708 45.7888C44.4223 45.7267 44.236 45.6025 43.9876 45.4782C43.4286 45.1056 43.0559 44.4844 42.9938 43.8012L42.4969 39.5776C45.4782 37.2174 47.7143 33.7391 48.7702 29.7018C50.6956 29.5155 52.1242 27.4037 52.1242 24.7329C52.1242 22.2484 50.882 20.2608 49.1428 19.826" stroke="#141F33" stroke-width="2.5" stroke-miterlimit="10" stroke-linecap="round"/>
<path d="M18.9565 19.764C17.2795 20.2609 16.0994 22.1863 16.0994 24.6708C16.0994 27.3416 17.5901 29.4534 19.4534 29.6398C20.5093 33.677 22.7453 37.2174 25.7267 39.5155L25.2298 43.7391C25.1677 44.4224 24.795 45.0435 24.236 45.4162C24.0497 45.5404 23.8013 45.6646 23.5528 45.7267L12.8696 48.8323C11.5031 49.1429 10.0745 49.8882 8.70808 51.0062C6.53416 52.8075 5.04348 55.3541 4.48447 58.087L2 70.6336L15.1677 73.3665" stroke="#141F33" stroke-width="2.5" stroke-miterlimit="10" stroke-linecap="round"/>
<path d="M49.205 19.764C49.205 19.764 50.0746 2 34.1118 2C18.1491 2 18.9565 19.764 18.9565 19.764" stroke="#141F33" stroke-width="2.5" stroke-miterlimit="10" stroke-linecap="round"/>
<path d="M20.0745 12.1863C20.6956 10.882 21.9379 9.95031 23.2422 9.45342C25.4161 8.64596 27.8385 9.26708 29.9503 10.2609C32.9938 11.6273 35.6025 13.2422 39.0186 13.6149C42.2484 13.9876 45.2298 13.6149 48.087 12.1242" stroke="#141F33" stroke-width="2.5" stroke-miterlimit="10" stroke-linecap="round"/>
<path d="M42.8695 42.8074L34.1118 50.6335L25.4161 42.8074" stroke="#141F33" stroke-width="2.5" stroke-miterlimit="10" stroke-linecap="round" stroke-linejoin="round"/>
<path d="M34.1118 82L15.1677 78.5217V56.7826L34.1118 60.2609V82Z" stroke="#141F33" stroke-width="2.5" stroke-miterlimit="10" stroke-linecap="round" stroke-linejoin="round"/>
<path d="M52.9938 78.5217L34.1118 82V60.2609L52.9938 56.7826V78.5217Z" stroke="#141F33" stroke-width="2.5" stroke-miterlimit="10" stroke-linecap="round" stroke-linejoin="round"/>
<path d="M38.8944 66.6584L48.5839 65.0435" stroke="#141F33" stroke-width="2.5" stroke-miterlimit="10" stroke-linecap="round" stroke-linejoin="round"/>
<path d="M38.8944 70.9442L48.5839 69.2672" stroke="#141F33" stroke-width="2.5" stroke-miterlimit="10" stroke-linecap="round" stroke-linejoin="round"/>
</svg>
