<?xml version="1.0" encoding="UTF-8"?>
<svg width="178px" height="20px" viewBox="0 0 178 20" version="1.1" xmlns="http://www.w3.org/2000/svg" xmlns:xlink="http://www.w3.org/1999/xlink">
    <!-- Generator: Sketch 49 (51002) - http://www.bohemiancoding.com/sketch -->
    <title>logo-white</title>
    <desc>Created with Sketch.</desc>
    <defs></defs>
    <g id="logo-white" stroke="none" stroke-width="1" fill="none" fill-rule="evenodd">
        <path d="M2.26918622,19.6400857 L-2.8525641e-05,0.553228571 L2.08063173,0.553228571 C2.64372788,5.19494286 3.27357404,13.2192286 3.42561571,16.2272286 L3.46526635,16.2272286 C3.72199712,13.1595143 4.96571506,5.07551429 5.57873109,0.553228571 L7.56725353,0.553228571 C8.19282083,5.10694286 9.42113494,12.6998 9.6530484,16.1312286 L9.72293622,16.1312286 C9.92717981,12.8660857 10.6214939,5.21837143 11.1845901,0.553228571 L13.1756798,0.553228571 L10.6848208,19.6400857 L8.57420865,19.6400857 C7.97602596,15.1775143 6.84983365,7.62837143 6.52834968,4.46751429 L6.48812853,4.46751429 C6.10959327,7.90665714 5.00821827,15.2215143 4.36724712,19.6400857 L2.26918622,19.6400857 Z" id="Path" fill="#FFFFFF"></path>
        <path d="M24.0670833,5.14817143 L24.0670833,15.0527429 C24.0670833,17.1984571 24.8452628,18.0530286 26.1234968,18.0530286 C27.4724744,18.0530286 28.1776282,17.2244571 28.1776282,14.9618857 L28.1776282,5.15102857 C28.1776282,3.12474286 27.4827436,2.15331429 26.1080929,2.15331429 C24.7334423,2.15331429 24.0670833,3.07017143 24.0670833,5.14817143 M30.2468782,5.2416 L30.2468782,14.8604571 C30.2468782,18.2138857 28.8673782,19.8944571 26.0276506,19.8944571 C23.0763878,19.8944571 21.9975481,18.0113143 21.9975481,14.8867429 L21.9975481,5.24445714 C21.9975481,2.00245714 23.4706122,0.298457143 26.164859,0.298457143 C28.981766,0.298457143 30.2468782,2.22588571 30.2468782,5.2416" id="Fill-4" fill="#FFFFFF"></path>
        <path d="M42.9382782,9.00308571 L44.1831372,9.00308571 C45.9933744,9.00308571 46.468041,7.95365714 46.468041,5.91451429 L46.468041,5.06508571 C46.468041,3.32194286 45.9933744,2.27794286 44.0847237,2.27794286 L42.9382782,2.27794286 L42.9382782,9.00308571 Z M42.9382782,10.7276571 L42.9382782,19.6399429 L40.9106756,19.6399429 L40.9106756,0.553371429 L44.2401885,0.553371429 C47.1033071,0.553371429 48.5113327,1.78965714 48.5113327,4.94565714 L48.5113327,5.81851429 C48.5113327,8.4108 47.6013647,9.47337143 46.5715891,9.8368 C47.7802205,10.2862286 48.3427462,11.1982286 48.3427462,13.7513714 C48.3427462,15.3825143 48.3145058,18.4348 48.5298744,19.6399429 L46.5536179,19.6399429 C46.312291,18.4502286 46.3539385,15.2425143 46.3539385,13.9045143 C46.3539385,11.4316571 46.0064962,10.7276571 44.118384,10.7276571 L42.9382782,10.7276571 Z" id="Fill-6" fill="#FFFFFF"></path>
        <path d="M58.9859196,0.553314286 L60.987849,0.553314286 L60.987849,9.75902857 L61.0160894,9.75902857 C61.8073907,7.96931429 63.8640894,3.37417143 65.0958266,0.553314286 L67.3233939,0.553314286 L63.6820958,8.12788571 L67.6500125,19.6401714 L65.4458362,19.6401714 L62.3259869,10.2550286 L60.987849,12.9227429 L60.987849,19.6401714 L58.9859196,19.6401714 L58.9859196,0.553314286 Z" id="Fill-8" fill="#FFFFFF"></path>
        <path d="M84.9330994,14.1643429 L84.9330994,14.8112 C84.9330994,17.2374857 84.4975128,19.8946286 81.0510449,19.8946286 C77.7520545,19.8946286 77.1869615,17.5514857 77.1869615,14.7489143 L77.1869615,5.0392 C77.1869615,1.98434286 78.4965737,0.298628571 81.0767179,0.298628571 C84.2744423,0.298628571 84.8475224,2.57405714 84.8475224,5.07291429 L84.8475224,5.81834286 L82.7885417,5.81834286 L82.7885417,4.92205714 C82.7885417,3.41034286 82.5526346,2.1532 81.0459103,2.1532 C79.6167756,2.1532 79.2564968,3.28577143 79.2564968,4.96891429 L79.2564968,14.8786286 C79.2564968,16.7932 79.6738269,18.0529143 81.1055288,18.0529143 C82.5914295,18.0529143 82.8612821,16.7620571 82.8612821,14.9646286 L82.8612821,14.1643429 L84.9330994,14.1643429 Z" id="Fill-10" fill="#FFFFFF"></path>
        <path d="M100.645878,11.6810857 C99.979234,7.47794286 99.502,4.23108571 99.3205769,2.42565714 L99.2375673,2.42565714 C99.1676795,3.90137143 98.4856314,8.19508571 97.9721699,11.6810857 L100.645878,11.6810857 Z M97.6971827,13.5485143 L96.7869295,19.6399429 L94.7327981,19.6399429 L97.8632019,0.553371429 L100.751994,0.553371429 L104.012189,19.6399429 L101.88817,19.6399429 L100.907744,13.5485143 L97.6971827,13.5485143 Z" id="Fill-13" fill="#FFFFFF"></path>
        <path d="M113.860153,19.6400857 L113.860153,0.553228571 L116.279413,0.553228571 C117.306621,4.08608571 119.956938,14.0920857 120.268438,15.6506571 L120.312368,15.6506571 C120.201118,13.0843714 120.16974,10.3980857 120.16974,7.28637143 L120.16974,0.553228571 L122.080672,0.553228571 L122.080672,19.6400857 L119.741855,19.6400857 C118.727483,16.0578 115.996724,5.55322857 115.636445,4.03351429 L115.607919,4.03351429 C115.734858,6.33237143 115.784208,9.38208571 115.784208,12.8263714 L115.784208,19.6400857 L113.860153,19.6400857 Z" id="Fill-15" fill="#FFFFFF"></path>
        <path d="M135.292551,19.6400857 L131.970455,0.553228571 L134.16151,0.553228571 L135.42976,9.1098 C135.821417,11.7772286 136.379093,15.0375143 136.549962,17.0143714 L136.591609,17.0143714 C136.747359,15.1023714 137.333276,11.8292286 137.711811,9.18237143 L139.003737,0.553228571 L141.166266,0.553228571 L137.833615,19.6400857 L135.292551,19.6400857 Z" id="Fill-17" fill="#FFFFFF"></path>
        <path d="M156.439436,11.6810857 C155.772792,7.47794286 155.295558,4.23108571 155.114135,2.42565714 L155.031125,2.42565714 C154.961238,3.90137143 154.279189,8.19508571 153.765728,11.6810857 L156.439436,11.6810857 Z M153.490741,13.5485143 L152.580488,19.6399429 L150.526356,19.6399429 L153.65676,0.553371429 L156.545552,0.553371429 L159.805747,19.6399429 L157.681728,19.6399429 L156.701302,13.5485143 L153.490741,13.5485143 Z" id="Fill-19" fill="#FFFFFF"></path>
        <path d="M171.827964,14.2656286 L171.827964,15.3722 C171.827964,17.1699143 172.447826,18.1310571 173.783112,18.1310571 C175.147493,18.1310571 175.686913,17.1413429 175.686913,15.0502 C175.686913,12.8162 175.196842,11.9487714 173.189493,10.3822 C171.151051,8.78477143 170.116426,7.82105714 170.116426,5.00791429 C170.116426,2.58962857 170.839836,0.2702 173.830179,0.285628571 C176.667054,0.301342857 177.416708,2.1922 177.416708,4.61591429 L177.416708,5.50134286 L175.401656,5.50134286 L175.401656,4.6702 C175.401656,3.08562857 175.093009,2.0622 173.788531,2.0622 C172.481487,2.0622 172.144028,3.21048571 172.144028,4.70677143 C172.144028,6.48077143 172.497176,7.15362857 174.244942,8.47848571 C176.890124,10.4810571 177.727922,11.5979143 177.727922,14.7670571 C177.727922,17.4502 176.962865,19.8944857 173.747169,19.8944857 C170.671249,19.8944857 169.800076,17.8764857 169.800076,15.3619143 L169.800076,14.2656286 L171.827964,14.2656286 Z" id="Fill-21" fill="#FFFFFF"></path>
    </g>
</svg>