<?xml version="1.0" encoding="utf-8"?>
<!-- Generator: Adobe Illustrator 23.0.1, SVG Export Plug-In . SVG Version: 6.00 Build 0)  -->
<svg version="1.1" id="グループ化_238" xmlns="http://www.w3.org/2000/svg" xmlns:xlink="http://www.w3.org/1999/xlink"
	 x="0px" y="0px" viewBox="0 0 22 22" style="enable-background:new 0 0 22 22;" xml:space="preserve">
<style type="text/css">
	.st0{fill:#00B900;}
	.st1{fill:#FFFFFF;}
</style>
<g>
	<path class="st0" d="M22,20.2c0,1-0.8,1.8-1.8,1.8H1.8c-1,0-1.8-0.8-1.8-1.8V1.8C0,0.8,0.8,0,1.8,0h18.4c1,0,1.8,0.8,1.8,1.8V20.2z
		"/>
	<path class="st1" d="M19,10c0-3.6-3.6-6.5-8-6.5c-4.4,0-8,2.9-8,6.5c0,3.2,2.8,5.9,6.7,6.4c0.3,0.1,0.6,0.2,0.7,0.4
		c0.1,0.2,0.1,0.5,0,0.7c0,0-0.1,0.6-0.1,0.7c0,0.2-0.2,0.8,0.7,0.4c0.9-0.4,4.6-2.7,6.3-4.7h0C18.4,12.8,19,11.5,19,10"/>
	<path class="st0" d="M9.3,8.3H8.8c-0.1,0-0.2,0.1-0.2,0.2v3.5c0,0.1,0.1,0.2,0.2,0.2h0.6c0.1,0,0.2-0.1,0.2-0.2V8.5
		C9.5,8.4,9.4,8.3,9.3,8.3"/>
	<path class="st0" d="M13.2,8.3h-0.6c-0.1,0-0.2,0.1-0.2,0.2v2.1l-1.6-2.2c0,0,0,0,0,0c0,0,0,0,0,0c0,0,0,0,0,0c0,0,0,0,0,0
		c0,0,0,0,0,0c0,0,0,0,0,0c0,0,0,0,0,0c0,0,0,0,0,0c0,0,0,0,0,0c0,0,0,0,0,0c0,0,0,0,0,0c0,0,0,0,0,0c0,0,0,0,0,0c0,0,0,0,0,0
		c0,0,0,0,0,0c0,0,0,0,0,0c0,0,0,0,0,0c0,0,0,0,0,0c0,0,0,0,0,0h-0.6c-0.1,0-0.2,0.1-0.2,0.2v3.5c0,0.1,0.1,0.2,0.2,0.2h0.6
		c0.1,0,0.2-0.1,0.2-0.2V9.9l1.6,2.2c0,0,0,0,0,0c0,0,0,0,0,0c0,0,0,0,0,0c0,0,0,0,0,0c0,0,0,0,0,0c0,0,0,0,0,0c0,0,0,0,0,0
		c0,0,0,0,0,0c0,0,0,0,0,0c0,0,0,0,0,0h0.6c0.1,0,0.2-0.1,0.2-0.2V8.5C13.4,8.4,13.3,8.3,13.2,8.3"/>
	<path class="st0" d="M8,11.2H6.5V8.5c0-0.1-0.1-0.2-0.2-0.2H5.7c-0.1,0-0.2,0.1-0.2,0.2v3.5v0c0,0,0,0.1,0,0.1c0,0,0,0,0,0
		c0,0,0,0,0,0c0,0,0.1,0,0.1,0h0H8c0.1,0,0.2-0.1,0.2-0.2v-0.6C8.1,11.3,8.1,11.2,8,11.2"/>
	<path class="st0" d="M16.3,9.2c0.1,0,0.2-0.1,0.2-0.2V8.5c0-0.1-0.1-0.2-0.2-0.2h-2.2h0c0,0-0.1,0-0.1,0c0,0,0,0,0,0c0,0,0,0,0,0
		c0,0,0,0.1,0,0.1v0v3.5v0c0,0,0,0.1,0,0.1c0,0,0,0,0,0c0,0,0,0,0,0c0,0,0.1,0,0.1,0h0h2.2c0.1,0,0.2-0.1,0.2-0.2v-0.6
		c0-0.1-0.1-0.2-0.2-0.2h-1.5v-0.6h1.5c0.1,0,0.2-0.1,0.2-0.2V9.9c0-0.1-0.1-0.2-0.2-0.2h-1.5V9.2H16.3z"/>
</g>
</svg>
